<svg class="huge-logo__svg" viewBox="0 0 60 24" xmlns="http://www.w3.org/2000/svg"><path d="M8.112.048v9.936H4.128V.048H.144v23.856h3.984v-9.936h3.984v9.936h3.984V.048H8.112M24.096.048V18.96c0 .528-.432 1.008-1.008 1.008h-2.016a1.014 1.014 0 0 1-1.008-1.008V.048h-3.936v19.92a3.974 3.974 0 0 0 3.984 3.984h3.984a3.974 3.974 0 0 0 3.984-3.984V.048h-3.984M60 4.032V.048H48.048v23.856H60V19.92h-7.968v-5.952h3.984V9.984h-3.984V4.032H60M44.016 6.048V4.032A3.974 3.974 0 0 0 40.032.048h-3.984a3.974 3.974 0 0 0-3.984 3.984v15.936a3.974 3.974 0 0 0 3.984 3.984h3.984a3.974 3.974 0 0 0 3.984-3.984v-9.936h-5.952v3.984h2.016v4.944c0 .528-.432 1.008-1.008 1.008h-2.016a1.014 1.014 0 0 1-1.008-1.008V5.04c0-.528.432-1.008 1.008-1.008h2.016c.528 0 1.008.432 1.008 1.008v1.008h3.936"/></svg>